<?xml version="1.0" encoding="utf-8"?>
<!-- Generator: Adobe Illustrator 16.0.0, SVG Export Plug-In . SVG Version: 6.00 Build 0)  -->
<!DOCTYPE svg PUBLIC "-//W3C//DTD SVG 1.1//EN" "http://www.w3.org/Graphics/SVG/1.1/DTD/svg11.dtd">
<svg version="1.1" id="Layer_1" xmlns="http://www.w3.org/2000/svg" xmlns:xlink="http://www.w3.org/1999/xlink" x="0px" y="0px"
	 width="39.719px" height="56.773px" viewBox="0 0 39.719 56.773" enable-background="new 0 0 39.719 56.773" xml:space="preserve">
<g>
	<defs>
		<rect id="SVGID_1_" y="0" width="39.719" height="56.773"/>
	</defs>
	<clipPath id="SVGID_2_">
		<use xlink:href="#SVGID_1_"  overflow="visible"/>
	</clipPath>
	<path clip-path="url(#SVGID_2_)" fill="#505055" d="M38.729,43.207c-0.771-0.944-1.917-1.487-3.157-1.527
		c0.825,1.047,1.323,2.305,1.459,3.639c0.14,0.369,0.179,0.805,0.082,1.275l-0.16,0.783c-0.015,0.08-0.02,0.159-0.036,0.239
		l-1.073,5.248c-0.301,1.475-1.014,2.8-1.986,3.864c2.233-0.228,4.201-2.02,4.682-4.374l1.073-5.249
		C39.906,45.677,39.584,44.255,38.729,43.207 M4.02,52.729c-0.157-0.274-0.275-0.572-0.338-0.884l-1.076-5.251
		c-0.138-0.671-0.006-1.275,0.313-1.707c0.192-1.18,0.666-2.287,1.409-3.222H4.285c-1.295,0-2.496,0.562-3.296,1.542
		c-0.854,1.048-1.176,2.47-0.883,3.899l1.077,5.25c0.488,2.415,2.551,4.245,4.862,4.39c-0.981-1.066-1.697-2.396-1.997-3.878
		L4.02,52.729z M14.048,8.709c-0.155-0.235-0.22-0.55-0.148-0.9l0.59-3.947c0.147-0.721,0.801-1.311,1.457-1.311h7.992
		c0.657,0,1.31,0.59,1.458,1.311l0.592,3.947c0.07,0.35,0.005,0.665-0.15,0.9c0.893,0.086,1.733,0.293,2.505,0.612
		c0.21-0.606,0.282-1.266,0.161-1.937l-0.584-3.9c-0.008-0.046-0.016-0.092-0.024-0.137C27.502,1.439,25.802,0,23.938,0h-7.992
		c-1.867,0-3.568,1.442-3.957,3.354c-0.009,0.043-0.016,0.087-0.023,0.131L11.385,7.38c-0.123,0.672-0.052,1.334,0.159,1.942
		C12.315,9.002,13.156,8.795,14.048,8.709 M5.635,39.326c-0.649-1.265-0.92-2.517-1.011-3.569c-1.443-1.514-1.011-3.494-1.011-3.494
		s1.59-14.224,2.053-16.6c0.196-1.015,0.899-1.472,1.559-1.681c0.325-1.032,0.85-1.951,1.544-2.721H8.587
		c-0.061-0.003-0.142-0.006-0.24-0.006c-2.689,0-4.724,1.54-5.186,3.923c-0.46,2.364-1.87,14.895-2.073,16.716
		c-0.12,0.713-0.361,3.114,1.327,5.218C3.217,38.108,4.297,38.845,5.635,39.326 M34.223,15.663c0.463,2.376,2.052,16.6,2.052,16.6
		s0.435,1.982-1.013,3.497c-0.09,1.053-0.363,2.304-1.011,3.567c1.339-0.482,2.421-1.218,3.223-2.216
		c1.688-2.104,1.447-4.505,1.327-5.218c-0.203-1.821-1.613-14.352-2.074-16.719c-0.461-2.38-2.496-3.92-5.185-3.92
		c-0.099,0-0.18,0.003-0.24,0.006h-0.183c0.692,0.77,1.218,1.689,1.543,2.72C33.321,14.19,34.024,14.647,34.223,15.663
		 M7.225,33.736c-0.088,0.514-0.23,1.917,0.291,3.479l-0.001-0.001c0.217,0.655,0.548,1.333,1.059,1.991h0.001
		c0.354-0.055,0.711-0.093,1.075-0.093h2.962c-3.611-1.529-2.862-5.004-2.862-5.004s1.752-15.682,2.262-18.299
		c0.042-0.216,0.109-0.404,0.189-0.576c0.013-0.03,0.026-0.061,0.039-0.089c0.081-0.159,0.176-0.3,0.282-0.425
		c0.02-0.023,0.042-0.045,0.062-0.067c0.112-0.123,0.231-0.232,0.36-0.323l0.015-0.008c0.13-0.091,0.266-0.165,0.403-0.228
		c0.021-0.01,0.04-0.02,0.061-0.028c0.137-0.061,0.274-0.108,0.41-0.147c0.023-0.007,0.045-0.013,0.067-0.018
		c0.138-0.037,0.272-0.066,0.398-0.085c0.002-0.001,0.004-0.001,0.006-0.001c0.134-0.021,0.256-0.034,0.366-0.041
		c0.006-0.001,0.012-0.001,0.018-0.002c0.11-0.007,0.203-0.01,0.278-0.01h0.011c0.108,0,0.177,0.005,0.177,0.005h4.78l0.01,0.174
		l0.01-0.174h4.783c0,0,0.069-0.005,0.178-0.005h0.011c0.075,0,0.168,0.003,0.278,0.01c0.006,0.001,0.012,0.001,0.018,0.002
		c0.11,0.007,0.232,0.02,0.366,0.041c0.002,0,0.004,0,0.006,0.001c0.126,0.019,0.26,0.048,0.397,0.085
		c0.022,0.005,0.045,0.011,0.067,0.018c0.136,0.039,0.273,0.086,0.41,0.147c0.021,0.008,0.04,0.018,0.061,0.028
		c0.138,0.063,0.273,0.137,0.403,0.228l0.015,0.008c0.129,0.091,0.248,0.2,0.36,0.323c0.021,0.022,0.042,0.044,0.063,0.067
		c0.105,0.125,0.2,0.266,0.28,0.425c0.015,0.028,0.027,0.059,0.039,0.089c0.081,0.172,0.148,0.36,0.19,0.576
		c0.508,2.617,2.26,18.299,2.26,18.299s0.749,3.475-2.861,5.004h2.961c0.364,0,0.722,0.038,1.075,0.093
		c1.733-2.229,1.475-4.741,1.351-5.47c-0.157-1.405-1.774-15.801-2.28-18.413c-0.486-2.498-2.629-4.113-5.463-4.113H24.92
		c-0.107,0-0.193,0.002-0.258,0.006h-9.435c-0.065-0.003-0.152-0.006-0.257-0.006h-0.001c-0.238,0-0.462,0.028-0.69,0.05
		c-1.884,0.185-3.391,1.111-4.206,2.551h0.002c-0.26,0.459-0.461,0.96-0.568,1.513C8.999,17.935,7.382,32.33,7.225,33.736
		 M34.323,44.724c-0.164-0.554-0.426-1.07-0.789-1.517c-0.25-0.307-0.55-0.557-0.87-0.776c-0.187-0.13-0.375-0.258-0.58-0.355
		h-0.001c-0.564-0.267-1.192-0.41-1.845-0.41h-2.462c0,0,0.003-0.001,0.004-0.001H12.109c0.001,0,0.002,0.001,0.003,0.001H9.65
		c-0.652,0-1.281,0.145-1.846,0.411c-0.205,0.097-0.393,0.226-0.579,0.354c-0.321,0.22-0.62,0.47-0.87,0.776
		c-0.855,1.048-1.177,2.47-0.883,3.899l1.076,5.25c0.137,0.677,0.405,1.304,0.76,1.866H7.307c0.723,1.147,1.834,2.009,3.091,2.367
		c0.42,0.12,0.856,0.184,1.299,0.184h16.497c2.423,0,4.637-1.899,5.15-4.419l1.073-5.249C34.586,46.285,34.545,45.47,34.323,44.724
		 M31.918,46.594l-1.074,5.251c-0.268,1.312-1.455,2.378-2.65,2.378H11.697c-1.197,0-2.384-1.066-2.65-2.378l-1.076-5.251
		c-0.27-1.313,0.484-2.378,1.679-2.378h20.588C31.434,44.216,32.188,45.28,31.918,46.594"/>
</g>
</svg>
