<?xml version="1.0" encoding="utf-8"?>
<!-- Generator: Adobe Illustrator 16.0.0, SVG Export Plug-In . SVG Version: 6.00 Build 0)  -->
<!DOCTYPE svg PUBLIC "-//W3C//DTD SVG 1.1//EN" "http://www.w3.org/Graphics/SVG/1.1/DTD/svg11.dtd">
<svg version="1.1" id="Layer_1" xmlns="http://www.w3.org/2000/svg" xmlns:xlink="http://www.w3.org/1999/xlink" x="0px" y="0px"
	 width="49.615px" height="64.016px" viewBox="0 0 49.615 64.016" enable-background="new 0 0 49.615 64.016" xml:space="preserve">
<g>
	<defs>
		<rect id="SVGID_1_" y="0" width="49.616" height="64.016"/>
	</defs>
	<clipPath id="SVGID_2_">
		<use xlink:href="#SVGID_1_"  overflow="visible"/>
	</clipPath>
	<path clip-path="url(#SVGID_2_)" fill="#d7d7d7" d="M49.611,60.389l-0.002-5.352c0-1.517-0.177-3.724-1.704-5.377
		c-1.416-1.532-3.206-1.999-4.167-2.25l-0.184-0.048c-0.057-0.016-0.135-0.036-0.231-0.063c-0.13-0.036-0.308-0.083-0.503-0.135
		c-0.213-0.058-0.455-0.122-0.727-0.194c-0.042-0.012-0.084-0.022-0.128-0.035c-2.202-0.589-5.78-1.545-5.793-1.548
		c-0.512-0.127-2.026-0.557-2.884-1.009c-1.234-0.651-1.991-1.985-2.074-3.597c1.437-0.957,2.81-2.204,3.919-3.751
		c0.722-1.006,1.291-2.017,1.753-3.051c0.391-0.298,0.769-0.609,1.134-0.938c0.098,0.008,0.192,0.03,0.294,0.03
		c1.929,0,3.5-1.571,3.5-3.5v-4.66c0-1.929-1.571-3.5-3.502-3.5c-0.026,0-0.051,0.007-0.077,0.008
		c-0.032-0.301-0.055-0.596-0.099-0.902c-0.271-1.939-1.269-5.026-2.652-7.176c-1.055-1.641-2.137-2.685-3.188-3.48
		c0.243-0.975,0.477-2.583,0.128-4.083C31.76,2.908,28.932,0,24.811,0c-4.114,0-6.94,2.908-7.607,5.779
		c-0.339,1.462-0.162,3.091,0.085,4.108c-1.04,0.793-2.111,1.831-3.158,3.456c-1.383,2.149-2.381,5.236-2.651,7.176
		c-0.043,0.305-0.07,0.601-0.103,0.902c-0.025-0.001-0.049-0.008-0.074-0.008c-1.93,0-3.5,1.571-3.5,3.5v4.66
		c0,1.929,1.57,3.5,3.502,3.5c0.347,0,0.675-0.067,0.991-0.161c0.507,1.414,1.22,2.771,2.186,4.119
		c1.111,1.547,2.483,2.794,3.919,3.751c-0.082,1.611-0.838,2.945-2.074,3.597c-1.029,0.543-2.865,1.005-2.9,1.014
		c0,0-6.472,1.729-7.364,1.97L5.878,47.41c-0.962,0.251-2.753,0.718-4.169,2.25c-1.525,1.653-1.702,3.86-1.702,5.377L0.004,60.39
		c-0.015,0.969-0.03,2.066,0.692,2.788c0.833,0.833,1.765,0.838,2.965,0.838h0.022h42.273h0.021c1.177,0,2.107-0.005,2.941-0.838
		C49.643,62.455,49.625,61.357,49.611,60.389 M39.814,24.913v4.66c0,0.827-0.673,1.5-1.5,1.5h-0.002c-0.828,0-1.5-0.673-1.5-1.5
		v-4.66c0-0.827,0.673-1.5,1.502-1.5C39.142,23.413,39.814,24.086,39.814,24.913 M19.151,6.232C19.64,4.129,21.739,2,24.811,2
		c3.076,0,5.179,2.128,5.666,4.231c0.196,0.855,0.131,1.778,0.017,2.481c-1.384-0.69-3.624-1.427-5.685-1.427
		c-2.074,0-4.329,0.746-5.709,1.438C18.999,8.017,18.953,7.086,19.151,6.232 M13.459,20.795c0.234-1.68,1.14-4.484,2.353-6.37
		c1.141-1.772,2.283-2.728,3.645-3.619c0.978-0.638,3.38-1.521,5.352-1.521c1.969,0,4.373,0.883,5.349,1.521
		c1.364,0.892,2.505,1.848,3.646,3.619c1.216,1.887,2.119,4.691,2.354,6.37c0.06,0.43,0.1,0.849,0.14,1.267
		c-0.195,0.139-0.375,0.3-0.538,0.475c-0.396-0.309-0.828-0.669-1.231-1.052c-1.074-1.022-2.471-2.92-2.486-2.94
		c-0.172-0.234-0.437-0.382-0.726-0.405c-0.292-0.023-0.577,0.082-0.783,0.286c-0.045,0.044-4.558,4.468-8.569,5.307
		c-3.058,0.638-5.808,0.157-7.512-0.323c-0.259-0.541-0.648-1.007-1.134-1.351C13.356,21.642,13.4,21.223,13.459,20.795
		 M11.302,31.073c-0.827,0-1.5-0.673-1.5-1.5v-4.66c0-0.827,0.673-1.5,1.5-1.5h0.002c0.827,0,1.5,0.673,1.5,1.5v4.66
		C12.804,30.4,12.13,31.073,11.302,31.073 M16.106,35.865c-0.966-1.348-1.644-2.697-2.09-4.108c0.485-0.601,0.788-1.354,0.788-2.184
		v-4.008c1.139,0.261,2.555,0.474,4.137,0.474c1.077,0,2.232-0.098,3.43-0.349c3.512-0.734,7.143-3.657,8.737-5.072
		c0.546,0.693,1.335,1.646,2.039,2.316c0.581,0.552,1.196,1.045,1.719,1.438c-0.027,0.178-0.054,0.356-0.054,0.541v4.66
		c0,0.829,0.302,1.583,0.787,2.183c-0.103,0.322-0.211,0.642-0.34,0.958c-2.047,1.456-4.43,2.418-6.857,2.774
		c-0.419-0.982-1.396-1.673-2.529-1.673H24.08c-1.516,0-2.75,1.234-2.75,2.751s1.234,2.75,2.75,2.75h1.793
		c1.188,0,2.193-0.761,2.576-1.817c1.661-0.219,3.304-0.691,4.861-1.391c-2.418,3.191-6.146,4.923-8.502,4.923
		C22.387,41.031,18.515,39.22,16.106,35.865 M26.623,36.566c0,0.413-0.336,0.75-0.75,0.75H24.08c-0.414,0-0.75-0.337-0.75-0.751
		c0-0.405,0.343-0.75,0.75-0.75h1.793C26.287,35.815,26.623,36.152,26.623,36.566 M17.259,46.148
		c1.608-0.848,2.676-2.41,3.023-4.307c1.62,0.772,3.218,1.189,4.526,1.189c1.306,0,2.904-0.417,4.524-1.189
		c0.348,1.896,1.415,3.459,3.024,4.307c0.754,0.398,1.785,0.738,2.497,0.948c-0.977,1.146-2.652,3.033-4.205,4.398
		c-2.862,2.514-5.406,3.795-5.826,3.856c-0.583-0.069-3.325-1.466-5.987-3.851c-1.494-1.338-3.056-3.148-4.081-4.402
		C15.471,46.888,16.503,46.547,17.259,46.148 M47.505,61.764c-0.229,0.23-0.48,0.252-1.569,0.252h-0.002H40.97v-4.364
		c0-0.553-0.447-1-1-1s-1,0.447-1,1v4.364H10.646v-4.364c0-0.553-0.448-1-1-1c-0.552,0-1,0.447-1,1v4.364H3.659
		c-1.067,0-1.318-0.021-1.542-0.244c-0.131-0.181-0.12-0.943-0.114-1.354l0.004-5.381c0-1.28,0.134-2.895,1.172-4.02
		c1.018-1.103,2.387-1.459,3.204-1.673l0.199-0.052c0.639-0.172,4.136-1.107,6.064-1.621c0.981,1.237,2.936,3.601,4.856,5.32
		c2.593,2.321,5.999,4.358,7.291,4.358c1.226,0,4.443-1.953,7.176-4.354c2.07-1.819,4.267-4.417,5.015-5.322
		c0.243,0.064,0.501,0.133,0.784,0.209c0.196,0.053,0.401,0.108,0.611,0.164c1.888,0.504,4.152,1.11,4.654,1.245l0.2,0.053
		c0.816,0.213,2.185,0.57,3.203,1.672c1.039,1.125,1.173,2.739,1.173,4.02l0.003,5.38C47.618,60.827,47.629,61.59,47.505,61.764"/>
</g>
</svg>
