<?xml version="1.0" encoding="utf-8"?>
<!-- Generator: Adobe Illustrator 16.0.0, SVG Export Plug-In . SVG Version: 6.00 Build 0)  -->
<!DOCTYPE svg PUBLIC "-//W3C//DTD SVG 1.1//EN" "http://www.w3.org/Graphics/SVG/1.1/DTD/svg11.dtd">
<svg version="1.1" id="Layer_1" xmlns="http://www.w3.org/2000/svg" xmlns:xlink="http://www.w3.org/1999/xlink" x="0px" y="0px"
	 width="45.604px" height="33.585px" viewBox="0 0 45.604 33.585" enable-background="new 0 0 45.604 33.585" xml:space="preserve">
<g>
	<defs>
		<rect id="SVGID_1_" width="45.605" height="33.585"/>
	</defs>
	<clipPath id="SVGID_2_">
		<use xlink:href="#SVGID_1_"  overflow="visible"/>
	</clipPath>
	<path clip-path="url(#SVGID_2_)" fill="#504F53" d="M18.337,14.463c-0.817-0.802-1.931-1.299-3.157-1.299
		c-0.128,0-0.257,0.006-0.387,0.017c-2.501,0.213-4.378,2.382-4.193,4.844c0.123,1.654,1.16,3.005,2.577,3.657l13.648,6.764
		c0.311,0.145,0.653,0.231,1.017,0.231c0.065,0,0.131-0.004,0.199-0.009c1.315-0.111,2.303-1.254,2.207-2.55
		c-0.045-0.594-0.32-1.11-0.719-1.493L18.337,14.463z M15.459,20.393c-1.416,0.113-2.657-0.942-2.77-2.357
		c-0.113-1.416,0.943-2.656,2.359-2.77c1.415-0.114,2.655,0.942,2.769,2.357C17.93,19.038,16.876,20.279,15.459,20.393
		 M27.395,27.151c-0.661,0.054-1.241-0.441-1.296-1.103c-0.052-0.662,0.442-1.242,1.104-1.296s1.243,0.44,1.296,1.104
		C28.552,26.519,28.057,27.099,27.395,27.151 M44.752,16.773c-0.105-0.345-0.487-0.626-0.834-0.627h-2.292
		c-0.349,0-0.635,0.288-0.641,0.641v1.067h-3.582v-4.995l-5.494-5.068h-6.03V5.128H30.8c0.353-0.004,0.642-0.292,0.641-0.64V2.194
		c-0.001-0.349-0.279-0.729-0.626-0.837c-5.989-1.81-12.38-1.81-18.368,0c-0.346,0.108-0.627,0.488-0.626,0.837v2.294
		c-0.002,0.348,0.289,0.636,0.641,0.64h4.922v2.663h-5.872l-5.91,3.871v6.237H3.228v-3.675c-0.002-0.14-0.116-0.255-0.257-0.255
		H0.733c-0.139-0.001-0.293,0.112-0.334,0.25c-0.532,1.801-0.532,3.719,0,5.521c0.013,0.039,0.034,0.075,0.061,0.108
		c-0.027,0.033-0.049,0.069-0.061,0.108c-0.532,1.802-0.532,3.719,0,5.521c0.043,0.138,0.191,0.251,0.334,0.251h2.238
		c0.141,0,0.255-0.115,0.257-0.258v-3.957h2.374v6.744h6.992l4.662,5.326h17.442v-5.868h6.287v0.996
		c0.002,0.353,0.292,0.642,0.641,0.641h2.292c0.348,0,0.729-0.28,0.834-0.627C45.889,24.824,45.888,20.676,44.752,16.773
		 M28.198,30.47c-0.118,0.011-0.238,0.016-0.356,0.016c-0.615,0-1.214-0.135-1.785-0.402c-0.011-0.006-0.022-0.012-0.034-0.017
		l-13.626-6.753c-2.055-0.956-3.433-2.929-3.598-5.152c-0.26-3.442,2.36-6.485,5.84-6.781c0.181-0.016,0.363-0.024,0.542-0.024
		c1.647,0,3.206,0.636,4.396,1.79l11.168,10.142c0.012,0.01,0.021,0.021,0.034,0.031c0.745,0.712,1.196,1.659,1.272,2.666
		C32.22,28.263,30.49,30.275,28.198,30.47"/>
</g>
</svg>
