<?xml version="1.0" encoding="utf-8"?>
<!-- Generator: Adobe Illustrator 16.0.0, SVG Export Plug-In . SVG Version: 6.00 Build 0)  -->
<!DOCTYPE svg PUBLIC "-//W3C//DTD SVG 1.1//EN" "http://www.w3.org/Graphics/SVG/1.1/DTD/svg11.dtd">
<svg version="1.1" id="Layer_1" xmlns="http://www.w3.org/2000/svg" xmlns:xlink="http://www.w3.org/1999/xlink" x="0px" y="0px"
	 width="108.747px" height="97.079px" viewBox="0 0 108.747 97.079" enable-background="new 0 0 108.747 97.079"
	 xml:space="preserve">
<g>
	<defs>
		<rect id="SVGID_1_" width="108.747" height="97.079"/>
	</defs>
	<clipPath id="SVGID_2_">
		<use xlink:href="#SVGID_1_"  overflow="visible"/>
	</clipPath>
	<path clip-path="url(#SVGID_2_)" fill="#d7d7d7" d="M43.087,97.08c-5.187,0-9.405-4.22-9.405-9.405
		c0-5.187,4.218-9.406,9.405-9.406s9.405,4.22,9.405,9.406C52.492,92.86,48.274,97.08,43.087,97.08 M43.087,82.269
		c-2.981,0-5.405,2.426-5.405,5.406s2.424,5.405,5.405,5.405s5.405-2.425,5.405-5.405S46.068,82.269,43.087,82.269"/>
	<path clip-path="url(#SVGID_2_)" fill="#d7d7d7" d="M84.9,97.08c-5.187,0-9.406-4.22-9.406-9.405c0-5.187,4.22-9.406,9.406-9.406
		s9.406,4.22,9.406,9.406C94.307,92.86,90.087,97.08,84.9,97.08 M84.9,82.269c-2.98,0-5.406,2.426-5.406,5.406
		S81.92,93.08,84.9,93.08s5.406-2.425,5.406-5.405S87.881,82.269,84.9,82.269"/>
	<path clip-path="url(#SVGID_2_)" fill="#d7d7d7" d="M92.307,69.09H36.27l-5.231-20.544L20.861,4.418
		C20.202,1.818,17.866,0,15.182,0H2C0.896,0,0,0.896,0,2c0,1.105,0.897,2,2,2h13.182c0.852,0,1.592,0.576,1.791,1.36l9.582,41.541
		c0.002,0.154,0.016,0.309,0.057,0.465l0.539,2.118l0.018,0.083c0.003,0.01,0.007,0.019,0.009,0.028l5.6,21.988
		c0.224,0.887,1.023,1.507,1.937,1.507h0.221h57.371c1.104,0,2-0.896,2-2C94.307,69.985,93.411,69.09,92.307,69.09"/>
	<path clip-path="url(#SVGID_2_)" fill="#d7d7d7" d="M93.137,59.245H46.24c-1.105,0-2-0.896-2-2c0-1.104,0.895-2,2-2h46.897
		c2.449,0,4.58-1.824,4.957-4.242c0.008-0.045,0.016-0.09,0.026-0.135l6.597-29.023c0.123-0.889-0.14-1.785-0.724-2.467
		c-0.597-0.697-1.466-1.097-2.386-1.097H32.871c-1.104,0-2-0.895-2-2c0-1.104,0.896-2,2-2h68.737c2.09,0,4.067,0.91,5.425,2.497
		c1.358,1.586,1.951,3.68,1.628,5.744c-0.007,0.045-0.016,0.09-0.025,0.135l-6.6,29.035C101.314,56.073,97.584,59.245,93.137,59.245
		"/>
	<path clip-path="url(#SVGID_2_)" fill="#d7d7d7" d="M46.336,48.249v-7.056H90.67v7.056h4v-9.056c0-1.104-0.896-2-2-2H44.336
		c-1.104,0-2,0.896-2,2v9.056H46.336z"/>
	<path clip-path="url(#SVGID_2_)" fill="#d7d7d7" d="M53.003,37.193v-7.415h31v7.415h4v-9.415c0-1.105-0.896-2-2-2h-35
		c-1.104,0-2,0.895-2,2v9.415H53.003z"/>
</g>
</svg>
