<?xml version="1.0" encoding="utf-8"?>
<!-- Generator: Adobe Illustrator 16.0.0, SVG Export Plug-In . SVG Version: 6.00 Build 0)  -->
<!DOCTYPE svg PUBLIC "-//W3C//DTD SVG 1.1//EN" "http://www.w3.org/Graphics/SVG/1.1/DTD/svg11.dtd">
<svg version="1.1" id="Layer_1" xmlns="http://www.w3.org/2000/svg" xmlns:xlink="http://www.w3.org/1999/xlink" x="0px" y="0px"
	 width="30.115px" height="34.406px" viewBox="0 0 30.115 34.406" enable-background="new 0 0 30.115 34.406" xml:space="preserve">
<g>
	<defs>
		<rect id="SVGID_1_" width="30.115" height="34.406"/>
	</defs>
	<clipPath id="SVGID_2_">
		<use xlink:href="#SVGID_1_"  overflow="visible"/>
	</clipPath>
	<path clip-path="url(#SVGID_2_)" fill="#504F53" d="M11.923,8.214h2.505l-1.701,4.916c-0.072,0.205,0.013,0.432,0.202,0.54
		c0.071,0.04,0.147,0.06,0.224,0.06c0.129,0,0.256-0.055,0.344-0.158l6.929-8.1c0.114-0.135,0.142-0.323,0.066-0.483
		c-0.073-0.161-0.234-0.264-0.41-0.264H16.94l1.803-4.091c0.062-0.14,0.048-0.301-0.035-0.429C18.624,0.077,18.482,0,18.329,0
		h-4.126c-0.198,0-0.373,0.128-0.431,0.317l-2.281,7.31c-0.043,0.137-0.017,0.287,0.068,0.403
		C11.644,8.146,11.779,8.214,11.923,8.214 M26.313,15.365c-0.002-0.63-0.004-1.259-0.006-1.889c-0.001-0.351-0.287-0.685-0.64-0.728
		c-1.538-0.184-3.094-0.177-4.632,0.018c-0.353,0.046-0.637,0.382-0.637,0.732c0.003,0.622,0.006,1.244,0.007,1.867H9.711
		c-0.002-0.63-0.005-1.259-0.006-1.889c-0.003-0.351-0.29-0.685-0.64-0.728c-1.539-0.184-3.093-0.177-4.632,0.018
		c-0.351,0.046-0.637,0.382-0.636,0.732c0.002,0.622,0.004,1.244,0.006,1.867H0v19.041h30.115V15.365H26.313z M9.942,25.68H3.57
		v-1.585h6.372V25.68z M26.546,25.68h-2.394v2.394h-1.585V25.68h-2.395v-1.585h2.395v-2.395h1.585v2.395h2.394V25.68z"/>
</g>
</svg>
