<?xml version="1.0" encoding="utf-8"?>
<!-- Generator: Adobe Illustrator 16.0.0, SVG Export Plug-In . SVG Version: 6.00 Build 0)  -->
<!DOCTYPE svg PUBLIC "-//W3C//DTD SVG 1.1//EN" "http://www.w3.org/Graphics/SVG/1.1/DTD/svg11.dtd">
<svg version="1.1" id="Layer_1" xmlns="http://www.w3.org/2000/svg" xmlns:xlink="http://www.w3.org/1999/xlink" x="0px" y="0px"
	 width="28.909px" height="34.932px" viewBox="0 0 28.909 34.932" enable-background="new 0 0 28.909 34.932" xml:space="preserve">
<g>
	<defs>
		<rect id="SVGID_1_" y="0" width="28.909" height="34.932"/>
	</defs>
	<clipPath id="SVGID_2_">
		<use xlink:href="#SVGID_1_"  overflow="visible"/>
	</clipPath>
	<path clip-path="url(#SVGID_2_)" fill="#504F53" d="M8.466,3.934C8.466,1.764,6.7,0,4.531,0S0.598,1.764,0.598,3.934
		c0,1.098,0.452,2.09,1.179,2.803H0v15.941h1.929v5.379c-0.815,0.721-1.331,1.771-1.331,2.941c0,2.17,1.764,3.934,3.933,3.934
		s3.935-1.764,3.935-3.934c0-1.063-0.426-2.025-1.112-2.734v-5.586h2.323V6.736H7.286C8.013,6.023,8.466,5.031,8.466,3.934
		 M2.158,8.021h1.808v12.963H2.158V8.021z M4.531,32.672c-0.922,0-1.673-0.75-1.673-1.674c0-0.922,0.751-1.674,1.673-1.674
		c0.923,0,1.674,0.752,1.674,1.674C6.205,31.922,5.454,32.672,4.531,32.672 M4.531,5.607c-0.922,0-1.673-0.752-1.673-1.674
		c0-0.924,0.751-1.674,1.673-1.674c0.923,0,1.674,0.75,1.674,1.674C6.205,4.855,5.454,5.607,4.531,5.607 M27.628,6.736h-1.771
		c-0.047,0-0.091,0.01-0.137,0.014V6.736h-2.083c0.727-0.713,1.179-1.705,1.179-2.803c0-2.17-1.765-3.933-3.934-3.933
		s-3.934,1.763-3.934,3.933c0,1.098,0.452,2.09,1.179,2.803h-2.084v13.707h-1.474v2.26h4.504v10.42c0,1,0.81,1.809,1.809,1.809
		c0.998,0,1.808-0.809,1.808-1.809v-10.42h4.504v-2.26H25.72v-6.07c0.046,0.005,0.09,0.013,0.137,0.013h1.771
		c0.705,0,1.281-0.576,1.281-1.281V8.018C28.909,7.313,28.333,6.736,27.628,6.736 M20.01,20.984h-1.809V8.021h1.809V20.984z
		 M20.882,5.607c-0.923,0-1.674-0.752-1.674-1.674c0-0.924,0.751-1.674,1.674-1.674s1.674,0.75,1.674,1.674
		C22.556,4.855,21.805,5.607,20.882,5.607"/>
</g>
</svg>
