<?xml version="1.0" encoding="utf-8"?>
<!-- Generator: Adobe Illustrator 16.0.0, SVG Export Plug-In . SVG Version: 6.00 Build 0)  -->
<!DOCTYPE svg PUBLIC "-//W3C//DTD SVG 1.1//EN" "http://www.w3.org/Graphics/SVG/1.1/DTD/svg11.dtd">
<svg version="1.1" id="Layer_1" xmlns="http://www.w3.org/2000/svg" xmlns:xlink="http://www.w3.org/1999/xlink" x="0px" y="0px"
	 width="30.818px" height="33.313px" viewBox="0 0 30.818 33.313" enable-background="new 0 0 30.818 33.313" xml:space="preserve">
<g>
	<defs>
		<rect id="SVGID_1_" y="0" width="30.818" height="33.313"/>
	</defs>
	<clipPath id="SVGID_2_">
		<use xlink:href="#SVGID_1_"  overflow="visible"/>
	</clipPath>
	<path clip-path="url(#SVGID_2_)" fill="#504F53" d="M25.498,13.514c-0.069-0.058-0.183-0.058-0.252,0c0,0-5.323,4.439-5.323,8.542
		c0,4.102,2.688,5.809,5.449,5.809c2.761,0,5.446-1.707,5.446-5.809C30.818,17.953,25.498,13.514,25.498,13.514 M25.158,25.744
		c-0.604,0.277-2.25-0.164-2.914-1.338c-0.665-1.176-0.096-2.637,0.508-2.914c0.604-0.281,0.372,1.027,1.037,2.201
		C24.453,24.867,25.763,25.465,25.158,25.744 M17.663,22.057c0-4.32,4.085-8.434,5.618-9.826c0,0,1.4-1.273,2.09-1.901V3.927
		c0-0.705-0.576-1.281-1.281-1.281h-0.865c-0.003-0.578-0.005-1.156-0.007-1.733c-0.002-0.381-0.314-0.746-0.695-0.791
		c-1.463-0.168-2.942-0.163-4.405,0.017c-0.382,0.05-0.692,0.414-0.69,0.795c0.002,0.57,0.004,1.142,0.006,1.712h-2.017
		c-0.706,0-1.756,0.325-2.338,0.724l-12.02,8.238C0.477,12.007,0,12.91,0,13.614v18.417c0,0.705,0.577,1.281,1.282,1.281H24.09
		c0.705,0,1.281-0.576,1.281-1.281v-1.906C21.534,30.125,17.663,27.631,17.663,22.057 M16.313,9.643l-10.11,8.06
		c-0.55,0.44-1.309,0.311-1.683-0.286l-1.183-1.879c-0.376-0.596-0.202-1.404,0.384-1.795l10.449-6.965
		c0.587-0.391,1.413-0.249,1.835,0.315l0.542,0.725C16.969,8.382,16.862,9.204,16.313,9.643"/>
</g>
</svg>
