<?xml version="1.0" encoding="utf-8"?>
<!-- Generator: Adobe Illustrator 16.0.0, SVG Export Plug-In . SVG Version: 6.00 Build 0)  -->
<!DOCTYPE svg PUBLIC "-//W3C//DTD SVG 1.1//EN" "http://www.w3.org/Graphics/SVG/1.1/DTD/svg11.dtd">
<svg version="1.1" id="meus-pedidos" xmlns="http://www.w3.org/2000/svg" xmlns:xlink="http://www.w3.org/1999/xlink" x="0px" y="0px"
	 width="26.835px" height="23.293px" viewBox="0 0 26.835 23.293" enable-background="new 0 0 26.835 23.293" xml:space="preserve">
<g>
	<defs>
		<rect id="SVGID_1_" width="26.835" height="23.293"/>
	</defs>
	<clipPath id="SVGID_2_">
		<use xlink:href="#SVGID_1_"  overflow="visible"/>
	</clipPath>
	<path clip-path="url(#SVGID_2_)" fill-rule="evenodd" clip-rule="evenodd" fill="#d7d7d7" d="M0.783,18.026
		C0.35,18.026,0,17.676,0,17.244c0-0.433,0.35-0.783,0.783-0.783h25.27c0.433,0,0.782,0.351,0.782,0.783
		c0,0.432-0.35,0.782-0.782,0.782H0.783z M8.214,2.409c0.432,0,0.823,0.175,1.106,0.458C9.603,3.15,9.778,3.542,9.778,3.973
		c0,0.43-0.175,0.82-0.458,1.104V5.08C9.037,5.363,8.646,5.538,8.214,5.538S7.39,5.363,7.107,5.08L7.059,5.026
		c-0.255-0.278-0.41-0.648-0.41-1.053c0-0.431,0.176-0.823,0.458-1.106C7.39,2.584,7.782,2.409,8.214,2.409 M1.565,6.589
		C3.704,5.65,5.083,6.25,6.498,6.865c1.181,0.514,2.394,1.042,4.366,0.15v-5.45H1.565V6.589z M10.864,8.705v2.159H1.565V8.335
		c1.934-1.072,3.105-0.563,4.31-0.04C7.251,8.894,8.663,9.508,10.864,8.705 M0.783,0C0.35,0,0,0.351,0,0.783v10.864
		c0,0.432,0.35,0.782,0.783,0.782h10.863c0.432,0,0.783-0.35,0.783-0.782V0.783C12.429,0.351,12.078,0,11.646,0H0.783z
		 M15.214,12.429c-0.433,0-0.783-0.35-0.783-0.782c0-0.433,0.351-0.783,0.783-0.783h10.839c0.433,0,0.782,0.35,0.782,0.783
		c0,0.432-0.35,0.782-0.782,0.782H15.214z M15.214,6.832c-0.433,0-0.783-0.351-0.783-0.783c0-0.431,0.351-0.782,0.783-0.782h10.839
		c0.433,0,0.782,0.351,0.782,0.782c0,0.432-0.35,0.783-0.782,0.783H15.214z M15.214,1.565c-0.433,0-0.783-0.35-0.783-0.782
		c0-0.432,0.351-0.782,0.783-0.782h10.839c0.433,0,0.782,0.35,0.782,0.782c0,0.432-0.35,0.782-0.782,0.782H15.214z M0.783,23.293
		C0.35,23.293,0,22.943,0,22.511c0-0.432,0.35-0.783,0.783-0.783h25.27c0.433,0,0.782,0.352,0.782,0.783
		c0,0.433-0.35,0.782-0.782,0.782H0.783z"/>
</g>
</svg>
