<?xml version="1.0" encoding="utf-8"?>
<!-- Generator: Adobe Illustrator 16.0.0, SVG Export Plug-In . SVG Version: 6.00 Build 0)  -->
<!DOCTYPE svg PUBLIC "-//W3C//DTD SVG 1.1//EN" "http://www.w3.org/Graphics/SVG/1.1/DTD/svg11.dtd">
<svg version="1.1" id="Layer_1" xmlns="http://www.w3.org/2000/svg" xmlns:xlink="http://www.w3.org/1999/xlink" x="0px" y="0px"
	 width="25.906px" height="31.45px" viewBox="0 0 25.906 31.45" enable-background="new 0 0 25.906 31.45" xml:space="preserve">
<g>
	<defs>
		<rect id="SVGID_1_" width="25.906" height="31.45"/>
	</defs>
	<clipPath id="SVGID_2_">
		<use xlink:href="#SVGID_1_"  overflow="visible"/>
	</clipPath>
	<path clip-path="url(#SVGID_2_)" fill-rule="evenodd" clip-rule="evenodd" fill="#d7d7d7" d="M8.671,20.061
		c0.341,0.375,0.793,0.684,1.3,0.928c0.937,0.453,2.036,0.673,2.983,0.673c0.98,0.001,1.971-0.261,2.814-0.671
		c0.564-0.273,1.054-0.605,1.423-0.961l-0.426-0.264c-0.16-0.091-0.288-0.238-0.351-0.428c-0.125-0.371-0.204-1.167-0.264-1.933
		c-0.163,0.112-0.328,0.218-0.496,0.315c-0.56,0.325-1.146,0.561-1.745,0.685h-0.006l-0.03,0.007l-0.013,0.002l-0.023,0.005
		l-0.02,0.004l-0.018,0.003l-0.025,0.005l-0.012,0.002l-0.03,0.007h-0.006l-0.074,0.011l-0.006,0.001l-0.029,0.005l-0.037,0.005
		l-0.021,0.003l-0.017,0.002l-0.026,0.004l-0.01,0.001l-0.033,0.004h-0.004l-0.037,0.006h-0.003l-0.034,0.003l-0.009,0.001
		l-0.028,0.003l-0.015,0.001l-0.021,0.001l-0.022,0.002l-0.014,0.001l-0.029,0.002l-0.008,0.001l-0.035,0.002h-0.002l-0.037,0.002
		h-0.004L13.139,18.5l-0.011,0.001l-0.026,0.001h-0.017l-0.021,0.001h-0.022l-0.015,0.001h-0.029H12.99h-0.035h-0.036h-0.008h-0.029
		l-0.014-0.001h-0.022l-0.022-0.001H12.81l-0.029-0.001h-0.007l-0.036-0.002h-0.001l-0.034-0.002h-0.009l-0.027-0.002l-0.016-0.001
		l-0.021-0.002l-0.022-0.001l-0.014-0.001l-0.108-0.009l-0.008-0.001l-0.028-0.004c-0.616-0.068-1.224-0.258-1.807-0.547
		l-0.024-0.01c-0.297-0.147-0.587-0.323-0.87-0.521c-0.047,0.758-0.116,1.538-0.233,1.899c-0.053,0.166-0.161,0.314-0.318,0.416
		L8.671,20.061z M18.688,20.7c1.7,0.397,3.174,0.989,4.205,1.767c0.906,0.686,1.449,1.514,1.449,2.475h0.003l-0.001,4.182
		c0,0.208-0.086,0.4-0.224,0.538h-0.003c-0.139,0.138-0.329,0.224-0.538,0.224H2.328c-0.21,0-0.401-0.086-0.539-0.224
		c-0.138-0.138-0.224-0.329-0.224-0.539v-4.181c0-0.962,0.542-1.786,1.446-2.464c1.026-0.771,2.495-1.355,4.191-1.753
		c0.517,0.714,1.257,1.267,2.09,1.67c1.151,0.554,2.499,0.825,3.663,0.826c1.229,0,2.457-0.321,3.493-0.824
		C17.369,21.95,18.157,21.354,18.688,20.7 M17.625,16.086c0.01,0.142,0.021,0.287,0.03,0.444c0.048,0.694,0.108,1.596,0.185,2.067
		l0.803,0.495c2.073,0.443,3.901,1.153,5.191,2.127c1.296,0.979,2.072,2.22,2.072,3.722h-0.004v4.182
		c0,0.64-0.261,1.222-0.681,1.643l0.001,0.002c-0.421,0.422-1.003,0.683-1.644,0.683H2.328c-0.641,0-1.223-0.261-1.645-0.683
		C0.262,30.346,0,29.764,0,29.122v-4.181c0-1.502,0.777-2.737,2.076-3.711c1.293-0.971,3.122-1.676,5.194-2.118l0.811-0.53
		c0.07-0.471,0.119-1.38,0.155-2.077l0.025-0.445c-0.127-0.143-0.25-0.29-0.369-0.442c-0.658-0.839-1.209-1.821-1.589-2.863
		C5.938,11.757,5.73,10.706,5.73,9.671V9.624c0-0.031,0.002-0.062,0.005-0.093C5.732,9.4,5.729,9.291,5.729,9.214
		c0-0.617-0.007-0.971-0.013-1.319C5.634,3.42,5.572-0.001,12.955-0.001c7.382,0,7.319,3.421,7.237,7.896
		c-0.006,0.348-0.013,0.702-0.013,1.319l-0.008,0.327l0.004,0.083h0.002v0.047c0,1.035-0.208,2.086-0.572,3.084
		c-0.38,1.042-0.931,2.024-1.589,2.863C17.89,15.779,17.759,15.935,17.625,16.086 M9.609,15.219
		c0.012,0.012,0.024,0.025,0.037,0.038l0.004,0.005c0.113,0.118,0.229,0.231,0.347,0.339l0.001,0.001l0.03,0.026l0.019,0.018
		l0.012,0.009l0.013,0.013l0.017,0.015l0.008,0.007l0.022,0.019l0.004,0.003l0.025,0.022l0.002,0.002l0.023,0.019l0.007,0.006
		l0.019,0.016l0.012,0.01l0.013,0.011l0.026,0.022l0.023,0.018l0.003,0.002c0.332,0.272,0.682,0.501,1.04,0.681l0.026,0.013
		c0.43,0.211,0.871,0.347,1.31,0.39l0.003,0.001l0.051,0.005h0.008l0.017,0.001l0.014,0.001l0.012,0.001l0.018,0.002l0.007,0.001
		l0.024,0.001h0.001l0.025,0.001l0.004,0.001h0.021h0.009l0.017,0.001h0.014l0.01,0.001h0.021h0.006h0.025h0.024h0.004h0.021
		l0.01-0.001h0.016l0.015-0.001h0.012h0.018l0.008-0.001l0.023-0.001h0.002l0.025-0.001l0.003-0.001l0.023-0.002l0.007-0.001
		l0.018-0.001l0.012-0.001l0.015-0.001l0.017-0.002h0.008l0.022-0.003h0.004l0.026-0.003l0.024-0.002l0.005-0.001l0.021-0.003
		l0.01-0.001l0.015-0.002l0.016-0.002l0.011-0.001l0.019-0.003l0.008-0.001l0.023-0.003h0.001l0.026-0.004l0.002-0.001l0.022-0.004
		l0.009-0.003l0.091-0.017h0.003l0.026-0.006h0.001l0.024-0.005l0.006-0.001c0.049-0.011,0.099-0.023,0.146-0.036l0.004-0.002
		l0.021-0.004l0.01-0.003l0.017-0.005l0.013-0.005c0.08-0.022,0.161-0.048,0.241-0.075l0.05-0.02l0.011-0.004
		c0.06-0.021,0.119-0.046,0.179-0.071l0.013-0.006l0.047-0.02l0.004-0.001l0.025-0.013l0.001-0.001l0.089-0.041l0.01-0.005
		l0.078-0.038l0.001-0.001l0.026-0.013l0.003-0.002l0.025-0.012l0.005-0.003l0.022-0.013l0.006-0.003l0.021-0.011l0.009-0.005
		l0.02-0.01l0.01-0.006l0.017-0.009l0.013-0.007l0.015-0.009l0.015-0.007l0.014-0.008l0.016-0.009l0.012-0.007l0.018-0.01
		l0.01-0.006l0.021-0.013l0.006-0.003l0.027-0.016v-0.001l0.026-0.015l0.006-0.004l0.022-0.013l0.011-0.007l0.016-0.011l0.017-0.009
		l0.011-0.007l0.021-0.014l0.006-0.003l0.027-0.017l0.032-0.022l0.021-0.014l0.011-0.006l0.017-0.012l0.015-0.01l0.013-0.008
		l0.02-0.014l0.006-0.004l0.026-0.018l0.001-0.001l0.027-0.018l0.004-0.003l0.03-0.024l0.019-0.011l0.014-0.011l0.014-0.009
		l0.018-0.015l0.008-0.004l0.024-0.018l0.003-0.002l0.025-0.019l0.002-0.002c0.481-0.365,0.934-0.818,1.339-1.333
		c0.562-0.717,1.029-1.55,1.351-2.43c0.218-0.596,0.368-1.214,0.435-1.834L18.104,8.94l-0.017-0.06
		c-0.087-0.337-0.134-0.65-0.159-0.947C17.906,7.68,17.9,7.386,17.895,7.099c-0.006-0.292-0.013-0.573-0.059-0.832
		c-0.034-0.19-0.092-0.36-0.198-0.497c-0.133-0.177-0.323-0.236-0.55-0.235c-0.355,0.002-0.845,0.135-1.374,0.278L15.71,5.814
		c-0.83,0.223-1.732,0.465-2.755,0.465c-1.003,0-1.89-0.233-2.708-0.453C10.212,5.82,10.178,5.811,10.145,5.8
		C9.29,5.57,8.566,5.382,8.27,5.77C8.164,5.907,8.105,6.076,8.073,6.264C8.027,6.522,8.021,6.805,8.014,7.099
		C8.008,7.388,8.001,7.683,7.979,7.936C7.954,8.235,7.906,8.552,7.817,8.897l-0.482,1.488c0.066,0.621,0.217,1.241,0.435,1.838
		c0.32,0.88,0.789,1.713,1.351,2.43C9.277,14.851,9.44,15.04,9.609,15.219 M7.505,4.342c0.854-0.638,1.888-0.363,3.07-0.045
		l0.026,0.007c0.733,0.197,1.529,0.411,2.354,0.411s1.621-0.214,2.354-0.411c0.622-0.168,1.196-0.323,1.772-0.327
		c0.491-0.003,0.938,0.1,1.326,0.38c-0.466-1.703-1.794-2.792-5.452-2.792C9.306,1.565,7.974,2.648,7.505,4.342"/>
</g>
</svg>
