<?xml version="1.0" encoding="utf-8"?>
<!-- Generator: Adobe Illustrator 16.0.0, SVG Export Plug-In . SVG Version: 6.00 Build 0)  -->
<!DOCTYPE svg PUBLIC "-//W3C//DTD SVG 1.1//EN" "http://www.w3.org/Graphics/SVG/1.1/DTD/svg11.dtd">
<svg version="1.1" id="Layer_1" xmlns="http://www.w3.org/2000/svg" xmlns:xlink="http://www.w3.org/1999/xlink" x="0px" y="0px"
	 width="47.727px" height="31.804px" viewBox="0 0 47.727 31.804" enable-background="new 0 0 47.727 31.804" xml:space="preserve">
<g>
	<defs>
		<rect id="SVGID_1_" y="0" width="47.726" height="31.804"/>
	</defs>
	<clipPath id="SVGID_2_">
		<use xlink:href="#SVGID_1_"  overflow="visible"/>
	</clipPath>
	<path clip-path="url(#SVGID_2_)" fill="#504F53" d="M46.445,18.203h-0.23l-1.312-6.523c-0.139-0.691-0.829-1.257-1.533-1.257
		h-5.376l4.61-6.122l-2.889-2.176L34.71,8.772l-5.911-8.036C28.458,0.273,27.918,0,27.343,0H7.142C6.428,0,5.781,0.42,5.49,1.075
		l-4.304,9.7c-0.11,0.249-0.167,0.874-0.167,0.931v6.525C0.438,18.353,0,18.869,0,19.484v3.676c0,0.705,0.577,1.281,1.282,1.281
		h2.904c-0.022,0.22-0.033,0.442-0.033,0.667c0,3.681,2.994,6.676,6.676,6.676c3.68,0,6.675-2.995,6.675-6.676
		c0-0.225-0.011-0.447-0.034-0.667h13.24c-0.022,0.227-0.035,0.455-0.035,0.688c0,3.681,2.995,6.675,6.675,6.675
		c3.682,0,6.676-2.994,6.676-6.675c0-0.232-0.012-0.461-0.035-0.688h2.455c0.705,0,1.281-0.576,1.281-1.281v-3.676
		C47.727,18.779,47.15,18.203,46.445,18.203 M31.437,10.422h-12.3V3.617h7.291L31.437,10.422z M8.317,3.617h7.203v6.806H5.297
		L8.317,3.617z M10.829,28.168c-1.688,0-3.061-1.372-3.061-3.06c0-1.687,1.373-3.06,3.061-3.06c1.687,0,3.059,1.373,3.059,3.06
		C13.888,26.796,12.516,28.168,10.829,28.168 M37.35,28.188c-1.686,0-3.059-1.372-3.059-3.059c0-1.688,1.373-3.061,3.059-3.061
		c1.687,0,3.061,1.373,3.061,3.061C40.41,26.815,39.036,28.188,37.35,28.188"/>
</g>
</svg>
