<?xml version="1.0" encoding="utf-8"?>
<!-- Generator: Adobe Illustrator 16.0.0, SVG Export Plug-In . SVG Version: 6.00 Build 0)  -->
<!DOCTYPE svg PUBLIC "-//W3C//DTD SVG 1.1//EN" "http://www.w3.org/Graphics/SVG/1.1/DTD/svg11.dtd">
<svg version="1.1" id="Layer_1" xmlns="http://www.w3.org/2000/svg" xmlns:xlink="http://www.w3.org/1999/xlink" x="0px" y="0px"
	 width="29.781px" height="33.006px" viewBox="0 0 29.781 33.006" enable-background="new 0 0 29.781 33.006" xml:space="preserve">
<g>
	<defs>
		<rect id="SVGID_1_" y="0" width="29.781" height="33.006"/>
	</defs>
	<clipPath id="SVGID_2_">
		<use xlink:href="#SVGID_1_"  overflow="visible"/>
	</clipPath>
	<path clip-path="url(#SVGID_2_)" fill-rule="evenodd" clip-rule="evenodd" fill="#ffffff" d="M9.28,18.125
		c0.354,0.174,0.744,0.316,1.149,0.427c0.687,0.186,1.395,0.278,2.026,0.278c0.624,0,1.257-0.098,1.851-0.265
		c0.478-0.134,0.926-0.311,1.322-0.516c-0.057-0.364-0.1-0.819-0.135-1.268l-0.109,0.075l-0.009,0.005l-0.004,0.002l-0.013,0.008
		l-0.022,0.016l-0.001,0.001c-0.091,0.057-0.182,0.113-0.272,0.167l-0.066,0.037l-0.012,0.007L14.984,17.1
		c-0.037,0.021-0.076,0.042-0.113,0.063l-0.003,0.001l-0.011,0.006l-0.012,0.007l-0.014,0.007l-0.003,0.001l-0.01,0.005
		l-0.013,0.006l-0.05,0.027l-0.005,0.003l-0.009,0.004l-0.024,0.013l-0.007,0.004l-0.008,0.003l-0.013,0.006
		c-0.045,0.022-0.09,0.044-0.135,0.065l-0.003,0.001l-0.031,0.015c-0.056,0.025-0.113,0.051-0.17,0.074l-0.034,0.015l-0.006,0.003
		c-0.04,0.016-0.08,0.032-0.121,0.048l-0.011,0.004l-0.029,0.01l-0.005,0.003c-0.115,0.044-0.23,0.082-0.346,0.117l-0.015,0.003
		l-0.021,0.008l-0.035,0.01l-0.026,0.007l-0.009,0.003l-0.032,0.009l-0.003,0.001l-0.034,0.009l-0.004,0.001l-0.031,0.008
		l-0.036,0.009l-0.015,0.004l-0.02,0.005l-0.022,0.005l-0.013,0.003l-0.028,0.007L13.45,17.7l-0.034,0.008h-0.001l-0.035,0.008
		l-0.006,0.001l-0.029,0.006l-0.012,0.002l-0.024,0.005l-0.036,0.007l-0.023,0.003l-0.012,0.003l-0.029,0.006l-0.006,0.001
		l-0.035,0.006h-0.001l-0.035,0.005l-0.007,0.001l-0.029,0.005l-0.012,0.002l-0.023,0.003l-0.019,0.002l-0.016,0.003L13,17.778
		h-0.011l-0.031,0.005h-0.004l-0.071,0.008l-0.009,0.001l-0.027,0.002l-0.014,0.002l-0.042,0.003l-0.015,0.001l-0.027,0.002
		l-0.009,0.001c-0.035,0.002-0.07,0.004-0.106,0.006h-0.011l-0.042,0.001l-0.019,0.001l-0.064,0.001h-0.007h-0.035h-0.001h-0.034
		h-0.007l-0.084-0.002h-0.014l-0.028-0.001h-0.007l-0.034-0.002h-0.001l-0.034-0.002h-0.008l-0.027-0.002l-0.014-0.001L12.143,17.8
		l-0.021-0.002l-0.014-0.001l-0.028-0.002l-0.006-0.001l-0.035-0.003h-0.001l-0.033-0.004l-0.035-0.004l-0.015-0.001l-0.02-0.004
		l-0.022-0.001l-0.013-0.002c-0.57-0.071-1.133-0.25-1.673-0.518l-0.025-0.011c-0.27-0.136-0.534-0.292-0.792-0.469
		C9.379,17.263,9.339,17.753,9.28,18.125 M26.789,24.445c0.432,0,0.782,0.352,0.782,0.783s-0.351,0.782-0.782,0.782h-4.005v4.005
		c0,0.431-0.35,0.782-0.781,0.782c-0.433,0-0.782-0.352-0.782-0.782V26.01h-4.004c-0.434,0-0.784-0.351-0.784-0.782
		s0.351-0.783,0.784-0.783h4.004v-4.003c0-0.433,0.35-0.782,0.782-0.782c0.432,0,0.781,0.35,0.781,0.782v4.003H26.789z
		 M22.004,19.011l-0.001-0.003c-1.156-0.001-2.24,0.315-3.167,0.865c-0.022,0.014-0.042,0.026-0.065,0.038
		c-0.424,0.259-0.817,0.568-1.168,0.918c-1.126,1.125-1.822,2.679-1.823,4.396h0.003h-0.003c0,1.386,0.453,2.667,1.222,3.702
		c0.025,0.03,0.05,0.061,0.07,0.095c0.164,0.212,0.341,0.414,0.529,0.603c1.125,1.126,2.68,1.821,4.396,1.822
		c1.718,0.002,3.272-0.694,4.399-1.82c1.126-1.125,1.824-2.68,1.824-4.396h-0.003h0.003c0.001-1.717-0.696-3.272-1.822-4.399
		c-1.125-1.126-2.678-1.822-4.394-1.823V19.011z M22.003,17.45v-0.004V17.45c2.148,0.001,4.093,0.872,5.502,2.281
		c1.404,1.407,2.273,3.352,2.272,5.5h0.004h-0.004c-0.001,2.149-0.873,4.095-2.281,5.502c-1.406,1.405-3.352,2.274-5.5,2.273
		s-4.094-0.873-5.501-2.281c-0.158-0.159-0.312-0.326-0.456-0.498H2.521c-0.69,0-1.32-0.283-1.778-0.741l-0.004-0.003
		C0.283,29.025,0,28.396,0,27.706v-3.754c0-1.451,0.75-2.644,2.003-3.584c1.243-0.933,2.999-1.61,4.987-2.035l0.762-0.497
		c0.065-0.453,0.112-1.316,0.147-1.978l0.023-0.412c-0.119-0.133-0.235-0.272-0.347-0.415c-0.634-0.807-1.163-1.752-1.528-2.754
		c-0.351-0.96-0.551-1.972-0.551-2.968V9.263c0-0.033,0.002-0.067,0.006-0.098L5.495,8.869c0-0.599-0.007-0.934-0.013-1.265
		C5.403,3.294,5.345,0,12.457,0s7.052,3.294,6.973,7.604c-0.005,0.331-0.012,0.665-0.012,1.265L19.41,9.17
		c0.003,0.031,0.005,0.062,0.005,0.093l0.001,0.045c0,0.996-0.2,2.008-0.551,2.968c-0.366,1.002-0.895,1.947-1.528,2.754
		c-0.119,0.152-0.242,0.298-0.368,0.441c0.009,0.131,0.018,0.266,0.027,0.412c0.045,0.66,0.104,1.514,0.176,1.966l0.752,0.464
		l0.268,0.059l0.09,0.021C19.388,17.792,20.654,17.45,22.003,17.45 M15.018,28.662c-0.51-1.036-0.797-2.203-0.797-3.437h-0.002
		h0.002c0.001-2.148,0.874-4.094,2.282-5.501c0.094-0.095,0.191-0.187,0.291-0.277l-0.222-0.136
		c-0.548,0.309-1.176,0.57-1.844,0.758c-0.718,0.201-1.494,0.319-2.273,0.319c-0.776,0-1.628-0.109-2.435-0.328
		c-0.615-0.167-1.214-0.4-1.748-0.703l-0.54,0.353c-0.082,0.057-0.178,0.098-0.282,0.119c-1.835,0.379-3.432,0.976-4.512,1.785
		c-0.859,0.646-1.374,1.427-1.374,2.338v3.754c0,0.265,0.107,0.504,0.279,0.676l0.003,0.003c0.171,0.171,0.41,0.277,0.674,0.277
		H15.018z M9.268,14.603c0.013,0.012,0.026,0.026,0.037,0.04l0.006,0.005c0.109,0.113,0.219,0.22,0.331,0.323l0.025,0.021
		l0.005,0.004l0.018,0.018l0.01,0.009l0.014,0.012l0.014,0.013l0.01,0.008l0.02,0.017l0.005,0.004l0.023,0.021l0.001,0.001
		l0.023,0.019l0.006,0.005l0.019,0.016l0.011,0.009l0.013,0.011l0.016,0.013c0.327,0.271,0.671,0.499,1.024,0.676l0.025,0.013
		c0.465,0.228,0.944,0.364,1.418,0.382l0.02,0.001l0.008,0.001h0.016h0.013l0.029,0.001h0.004h0.025h0.023h0.005l0.086-0.003h0.007
		l0.072-0.004h0.007l0.018-0.001l0.011-0.002l0.086-0.007c0.47-0.051,0.942-0.213,1.398-0.462l0.016-0.009l0.012-0.007l0.083-0.047
		l0.031-0.018l0.005-0.002l0.026-0.016l0.001-0.001c0.041-0.024,0.082-0.05,0.123-0.076l0.005-0.003l0.052-0.034l0.004-0.003
		l0.022-0.014l0.1-0.069h0.002c0.526-0.367,1.021-0.847,1.456-1.403c0.537-0.685,0.985-1.481,1.291-2.322
		c0.206-0.566,0.35-1.154,0.414-1.744l-0.448-1.384l-0.017-0.06c-0.084-0.325-0.128-0.626-0.153-0.913
		c-0.02-0.241-0.025-0.525-0.033-0.801c-0.005-0.28-0.012-0.55-0.056-0.796c-0.031-0.175-0.085-0.332-0.183-0.461
		c-0.121-0.159-0.294-0.213-0.503-0.211c-0.335,0.002-0.805,0.128-1.31,0.265l-0.005,0.001c-0.799,0.215-1.665,0.448-2.649,0.448
		c-0.965,0-1.818-0.225-2.604-0.435C9.819,5.645,9.787,5.636,9.754,5.625c-0.488-0.131-0.938-0.25-1.263-0.252
		C8.284,5.371,8.109,5.425,7.988,5.584C7.891,5.713,7.837,5.87,7.806,6.045C7.763,6.291,7.756,6.561,7.75,6.841
		C7.745,7.117,7.737,7.4,7.717,7.642L7.716,7.646C7.691,7.934,7.646,8.239,7.56,8.572L7.099,9.994
		c0.065,0.592,0.207,1.182,0.415,1.749c0.307,0.841,0.753,1.637,1.291,2.322C8.953,14.253,9.107,14.433,9.268,14.603 M7.284,4.132
		C7.645,3.9,8.053,3.812,8.498,3.815c0.55,0.003,1.094,0.148,1.681,0.306l0.03,0.008c0.7,0.189,1.461,0.393,2.248,0.393
		s1.548-0.204,2.248-0.393l0.007-0.002c0.595-0.16,1.146-0.309,1.702-0.312c0.446-0.003,0.854,0.085,1.216,0.317
		c-0.469-1.569-1.752-2.567-5.172-2.567C9.037,1.565,7.751,2.563,7.284,4.132"/>
</g>
</svg>
